<?xml version="1.0" encoding="utf-8"?>
<!-- Generator: Adobe Illustrator 19.0.0, SVG Export Plug-In . SVG Version: 6.00 Build 0)  -->
<svg version="1.1" id="Calque_1" xmlns="http://www.w3.org/2000/svg" xmlns:xlink="http://www.w3.org/1999/xlink" x="0px" y="0px"
	 viewBox="0 0 885 171" style="enable-background:new 0 0 885 171;" xml:space="preserve">
<style type="text/css">
	.st0{fill:#FFFFFF;stroke:#ED1C24;stroke-width:7;stroke-miterlimit:10;}
	.st1{fill:#38313D;}
	.st2{fill:#746A7A;}
</style>
<rect id="XMLID_1_" x="42.5" y="102" class="st0" width="28.3" height="28.3"/>
<rect id="XMLID_2_" x="70.8" y="130.3" class="st0" width="28.3" height="28.3"/>
<rect id="XMLID_3_" x="99.1" y="102" class="st0" width="28.3" height="28.3"/>
<rect id="XMLID_4_" x="14.2" y="73.8" class="st0" width="28.3" height="28.3"/>
<rect id="XMLID_5_" x="42.5" y="45.5" class="st0" width="28.3" height="28.3"/>
<rect id="XMLID_6_" x="70.8" y="17.2" class="st0" width="28.3" height="28.3"/>
<rect id="XMLID_7_" x="99.1" y="45.5" class="st0" width="28.3" height="28.3"/>
<g id="XMLID_8_">
	<path id="XMLID_24_" class="st1" d="M168.7,124.4h40.6v10.7H156V41.2h12.7V124.4z"/>
	<path id="XMLID_52_" class="st1" d="M238.5,135.1h-12.7V41.2h12.7V135.1z"/>
	<path id="XMLID_54_" class="st1" d="M341,135.1h-9.8c-1.1,0-2.1-0.3-2.8-0.9c-0.7-0.6-1.2-1.3-1.6-2.2l-8.8-22.7h-42.2l-8.8,22.7
		c-0.3,0.8-0.8,1.5-1.6,2.1c-0.7,0.6-1.7,0.9-2.8,0.9h-9.8l37.6-93.9h12.9L341,135.1z M279.4,100.3h35.1l-14.8-38.2
		c-1-2.4-1.9-5.3-2.8-8.8c-0.5,1.8-1,3.4-1.4,4.9s-0.9,2.8-1.3,4L279.4,100.3z"/>
	<path id="XMLID_57_" class="st1" d="M361.9,41.7c0.5,0.3,1.2,0.9,1.9,1.7l54.4,70.7c-0.1-1.1-0.2-2.2-0.3-3.3
		c0-1.1-0.1-2.1-0.1-3.1V41.2H429v93.9h-6.4c-1,0-1.8-0.2-2.5-0.5c-0.7-0.3-1.3-0.9-2-1.8l-54.4-70.7c0.1,1.1,0.2,2.2,0.2,3.2
		c0,1,0.1,2,0.1,2.9v66.9h-11.1V41.2h6.6C360.5,41.2,361.4,41.4,361.9,41.7z"/>
</g>
<g id="XMLID_9_">
	<path id="XMLID_59_" class="st2" d="M497.3,132.3c3.2,0,6.1-0.2,8.7-0.5c2.6-0.3,5.1-0.8,7.3-1.5s4.4-1.5,6.4-2.4
		c2-0.9,4.1-2,6.1-3.2v-25H508c-0.5,0-0.9-0.2-1.2-0.5c-0.3-0.3-0.5-0.7-0.5-1v-3.7h25.6v32.9c-2.3,1.6-4.7,3.1-7.2,4.3
		s-5.2,2.3-8,3.2c-2.8,0.9-5.9,1.5-9.2,2c-3.3,0.5-6.9,0.7-10.8,0.7c-6.7,0-12.8-1.1-18.3-3.4c-5.5-2.2-10.3-5.4-14.2-9.6
		s-7-9.1-9.2-15c-2.2-5.9-3.3-12.4-3.3-19.5c0-7.2,1.1-13.7,3.3-19.5c2.2-5.8,5.3-10.8,9.3-14.9c4-4.1,8.9-7.3,14.7-9.6
		c5.7-2.2,12.2-3.4,19.3-3.4c3.5,0,6.8,0.2,9.8,0.7c3,0.5,5.8,1.2,8.4,2.1c2.6,0.9,5,2.1,7.2,3.5c2.2,1.4,4.4,3,6.4,4.7l-1.8,2.9
		c-0.4,0.7-0.9,1-1.6,1c-0.4,0-0.8-0.1-1.1-0.3c-0.7-0.3-1.6-0.9-2.9-1.8c-1.2-1-2.9-2-5-3c-2.1-1-4.8-2-8-2.8
		c-3.2-0.8-7.1-1.2-11.6-1.2c-6,0-11.5,1-16.3,2.9c-4.9,1.9-9,4.7-12.4,8.3c-3.4,3.6-6.1,7.9-7.9,13.1c-1.9,5.2-2.8,10.9-2.8,17.4
		c0,6.5,0.9,12.4,2.8,17.6c1.9,5.2,4.5,9.6,7.9,13.2c3.4,3.6,7.5,6.4,12.2,8.3C486.3,131.3,491.5,132.3,497.3,132.3z"/>
	<path id="XMLID_61_" class="st2" d="M558.3,94.8v41.9h-6.7V44h23.7c10.7,0,18.7,2.1,24,6.2c5.3,4.1,7.9,10.2,7.9,18.2
		c0,3.5-0.6,6.8-1.8,9.7c-1.2,2.9-3,5.5-5.3,7.7c-2.3,2.2-5.1,4-8.3,5.4c-3.2,1.4-6.9,2.3-10.9,2.8c1,0.7,2,1.5,2.8,2.6l31.9,40.1
		h-5.8c-0.7,0-1.3-0.1-1.8-0.4c-0.5-0.3-1-0.7-1.5-1.3l-29.7-37.6c-0.7-1-1.5-1.6-2.4-2c-0.9-0.4-2.2-0.6-4-0.6H558.3z M558.3,89.8
		h16.1c4.1,0,7.8-0.5,11-1.5c3.3-1,6-2.4,8.3-4.2c2.3-1.8,4-4,5.1-6.6c1.2-2.6,1.8-5.5,1.8-8.7c0-6.6-2.2-11.5-6.5-14.7
		c-4.3-3.2-10.6-4.8-18.9-4.8h-17V89.8z"/>
	<path id="XMLID_64_" class="st2" d="M706.4,90.3c0,7.2-1.1,13.7-3.2,19.5s-5.2,10.8-9,14.9c-3.9,4.1-8.5,7.3-14,9.6
		c-5.4,2.2-11.4,3.4-18,3.4c-6.5,0-12.5-1.1-17.9-3.4s-10.1-5.4-14-9.6c-3.9-4.1-6.9-9.1-9.1-14.9C619,104,618,97.5,618,90.3
		c0-7.1,1.1-13.6,3.2-19.4c2.2-5.8,5.2-10.8,9.1-14.9c3.9-4.1,8.5-7.3,14-9.6c5.4-2.3,11.4-3.4,17.9-3.4c6.6,0,12.6,1.1,18,3.4
		c5.4,2.2,10.1,5.4,14,9.6c3.9,4.1,6.9,9.1,9,15C705.3,76.7,706.4,83.2,706.4,90.3z M699.4,90.3c0-6.5-0.9-12.3-2.7-17.4
		c-1.8-5.2-4.3-9.5-7.6-13.1c-3.3-3.6-7.2-6.3-11.8-8.2c-4.6-1.9-9.7-2.8-15.3-2.8c-5.5,0-10.5,0.9-15.1,2.8
		c-4.6,1.9-8.5,4.6-11.8,8.2c-3.3,3.6-5.9,7.9-7.7,13.1c-1.8,5.2-2.7,11-2.7,17.4c0,6.5,0.9,12.3,2.7,17.5c1.8,5.1,4.4,9.5,7.7,13.1
		c3.3,3.6,7.2,6.3,11.8,8.2c4.6,1.9,9.6,2.8,15.1,2.8c5.6,0,10.7-0.9,15.3-2.8c4.6-1.9,8.5-4.6,11.8-8.2c3.3-3.6,5.8-7.9,7.6-13.1
		C698.5,102.6,699.4,96.8,699.4,90.3z"/>
	<path id="XMLID_67_" class="st2" d="M756.6,131.9c4.5,0,8.4-0.8,12-2.3s6.5-3.7,8.9-6.5s4.3-6,5.6-9.7c1.3-3.7,1.9-7.8,1.9-12.1V44
		h6.7v57.3c0,5.1-0.8,9.9-2.4,14.3c-1.6,4.4-3.9,8.3-7,11.6c-3,3.3-6.7,5.9-11.1,7.8c-4.3,1.9-9.2,2.8-14.7,2.8
		c-5.4,0-10.3-0.9-14.7-2.8c-4.3-1.9-8-4.5-11.1-7.8c-3-3.3-5.4-7.2-7-11.6c-1.6-4.4-2.4-9.2-2.4-14.3V44h6.8v57.2
		c0,4.3,0.6,8.4,1.9,12.1c1.3,3.7,3.1,7,5.6,9.7s5.4,4.9,8.9,6.5C748.2,131.1,752.2,131.9,756.6,131.9z"/>
	<path id="XMLID_69_" class="st2" d="M821.3,99.3v37.3h-6.7V44h23.9c10.9,0,19.1,2.4,24.6,7.1c5.5,4.8,8.3,11.6,8.3,20.4
		c0,4.1-0.8,7.8-2.3,11.2c-1.5,3.4-3.7,6.3-6.5,8.8c-2.8,2.5-6.3,4.4-10.4,5.8c-4.1,1.4-8.7,2.1-13.8,2.1H821.3z M821.3,94h17.2
		c4.1,0,7.8-0.6,11-1.7c3.2-1.1,6-2.7,8.2-4.7c2.3-2,4-4.4,5.2-7.1c1.2-2.7,1.8-5.7,1.8-8.9c0-7.1-2.2-12.6-6.6-16.4
		c-4.4-3.8-10.9-5.8-19.6-5.8h-17.2V94z"/>
</g>
</svg>
