<?xml version="1.0" encoding="UTF-8" standalone="no"?>
<!DOCTYPE svg PUBLIC "-//W3C//DTD SVG 1.1//EN" "http://www.w3.org/Graphics/SVG/1.1/DTD/svg11.dtd">
<svg version="1.1" xmlns="http://www.w3.org/2000/svg" xmlns:xlink="http://www.w3.org/1999/xlink" preserveAspectRatio="xMidYMid meet" viewBox="0 0 640 640" width="640" height="640"><defs><path d="M288.46 380.74C288.46 380.74 288.46 380.74 288.46 380.74C288.46 449.3 288.46 487.4 288.46 495.02C288.46 495.02 288.46 495.02 288.46 495.02C219.89 495.02 181.8 495.02 174.18 495.02C174.18 495.02 174.18 495.02 174.18 495.02C174.18 426.45 174.18 388.36 174.18 380.74C174.18 380.74 174.18 380.74 174.18 380.74C242.75 380.74 280.84 380.74 288.46 380.74Z" id="bH6Mmtow1"></path><path d="M402.73 495.02C402.73 495.02 402.73 495.02 402.73 495.02C402.73 563.58 402.73 601.67 402.73 609.29C402.73 609.29 402.73 609.29 402.73 609.29C334.17 609.29 296.07 609.29 288.46 609.29C288.46 609.29 288.46 609.29 288.46 609.29C288.46 540.73 288.46 502.63 288.46 495.02C288.46 495.02 288.46 495.02 288.46 495.02C357.02 495.02 395.11 495.02 402.73 495.02Z" id="d2PXLJE0WA"></path><path d="M517.01 380.74C517.01 380.74 517.01 380.74 517.01 380.74C517.01 449.3 517.01 487.4 517.01 495.02C517.01 495.02 517.01 495.02 517.01 495.02C448.44 495.02 410.35 495.02 402.73 495.02C402.73 495.02 402.73 495.02 402.73 495.02C402.73 426.45 402.73 388.36 402.73 380.74C402.73 380.74 402.73 380.74 402.73 380.74C471.3 380.74 509.39 380.74 517.01 380.74Z" id="a1bVsbsqE"></path><path d="M174.18 266.87C174.18 266.87 174.18 266.87 174.18 266.87C174.18 335.43 174.18 373.52 174.18 381.14C174.18 381.14 174.18 381.14 174.18 381.14C105.61 381.14 67.52 381.14 59.9 381.14C59.9 381.14 59.9 381.14 59.9 381.14C59.9 312.58 59.9 274.49 59.9 266.87C59.9 266.87 59.9 266.87 59.9 266.87C128.47 266.87 166.56 266.87 174.18 266.87Z" id="b51ah5yFQ1"></path><path d="M288.46 152.59C288.46 152.59 288.46 152.59 288.46 152.59C288.46 221.16 288.46 259.25 288.46 266.87C288.46 266.87 288.46 266.87 288.46 266.87C219.89 266.87 181.8 266.87 174.18 266.87C174.18 266.87 174.18 266.87 174.18 266.87C174.18 198.3 174.18 160.21 174.18 152.59C174.18 152.59 174.18 152.59 174.18 152.59C242.75 152.59 280.84 152.59 288.46 152.59Z" id="bvT9btknZ"></path><path d="M402.73 38.32C402.73 38.32 402.73 38.32 402.73 38.32C402.73 106.88 402.73 144.97 402.73 152.59C402.73 152.59 402.73 152.59 402.73 152.59C334.17 152.59 296.07 152.59 288.46 152.59C288.46 152.59 288.46 152.59 288.46 152.59C288.46 84.03 288.46 45.93 288.46 38.32C288.46 38.32 288.46 38.32 288.46 38.32C357.02 38.32 395.11 38.32 402.73 38.32Z" id="d2t3RdCcjf"></path><path d="M517.01 152.59C517.01 152.59 517.01 152.59 517.01 152.59C517.01 221.16 517.01 259.25 517.01 266.87C517.01 266.87 517.01 266.87 517.01 266.87C448.44 266.87 410.35 266.87 402.73 266.87C402.73 266.87 402.73 266.87 402.73 266.87C402.73 198.3 402.73 160.21 402.73 152.59C402.73 152.59 402.73 152.59 402.73 152.59C471.3 152.59 509.39 152.59 517.01 152.59Z" id="bgdxVDRwU"></path></defs><g><g><g><use xlink:href="#bH6Mmtow1" opacity="1" fill="#ffffff" fill-opacity="0"></use><g><use xlink:href="#bH6Mmtow1" opacity="1" fill-opacity="0" stroke="#ed1c24" stroke-width="17" stroke-opacity="1"></use></g></g><g><use xlink:href="#d2PXLJE0WA" opacity="1" fill="#ffffff" fill-opacity="0"></use><g><use xlink:href="#d2PXLJE0WA" opacity="1" fill-opacity="0" stroke="#ed1c24" stroke-width="17" stroke-opacity="1"></use></g></g><g><use xlink:href="#a1bVsbsqE" opacity="1" fill="#ffffff" fill-opacity="0"></use><g><use xlink:href="#a1bVsbsqE" opacity="1" fill-opacity="0" stroke="#ed1c24" stroke-width="17" stroke-opacity="1"></use></g></g><g><use xlink:href="#b51ah5yFQ1" opacity="1" fill="#ffffff" fill-opacity="0"></use><g><use xlink:href="#b51ah5yFQ1" opacity="1" fill-opacity="0" stroke="#ed1c24" stroke-width="17" stroke-opacity="1"></use></g></g><g><use xlink:href="#bvT9btknZ" opacity="1" fill="#ffffff" fill-opacity="0"></use><g><use xlink:href="#bvT9btknZ" opacity="1" fill-opacity="0" stroke="#ed1c24" stroke-width="17" stroke-opacity="1"></use></g></g><g><use xlink:href="#d2t3RdCcjf" opacity="1" fill="#ffffff" fill-opacity="0"></use><g><use xlink:href="#d2t3RdCcjf" opacity="1" fill-opacity="0" stroke="#ed1c24" stroke-width="17" stroke-opacity="1"></use></g></g><g><use xlink:href="#bgdxVDRwU" opacity="1" fill="#ffffff" fill-opacity="0"></use><g><use xlink:href="#bgdxVDRwU" opacity="1" fill-opacity="0" stroke="#ed1c24" stroke-width="17" stroke-opacity="1"></use></g></g></g></g></svg>