<?xml version="1.0" encoding="utf-8"?>
<!-- Generator: Adobe Illustrator 19.0.0, SVG Export Plug-In . SVG Version: 6.00 Build 0)  -->
<svg version="1.1" id="Calque_1" xmlns="http://www.w3.org/2000/svg" xmlns:xlink="http://www.w3.org/1999/xlink" x="0px" y="0px"
	 viewBox="0 0 897 247.5" style="enable-background:new 0 0 897 247.5;" xml:space="preserve">
<style type="text/css">
	.st0{fill:#FFFFFF;stroke:#ED1C24;stroke-width:7;stroke-miterlimit:10;}
	.st1{fill:#38313D;}
	.st2{fill:#746A7A;}
</style>
<rect id="XMLID_1_" x="57" y="144.1" class="st0" width="38.4" height="38.4"/>
<rect id="XMLID_2_" x="95.3" y="182.5" class="st0" width="38.4" height="38.4"/>
<rect id="XMLID_3_" x="133.7" y="144.1" class="st0" width="38.4" height="38.4"/>
<rect id="XMLID_4_" x="18.6" y="105.8" class="st0" width="38.4" height="38.4"/>
<rect id="XMLID_5_" x="57" y="67.4" class="st0" width="38.4" height="38.4"/>
<rect id="XMLID_6_" x="95.3" y="29.1" class="st0" width="38.4" height="38.4"/>
<rect id="XMLID_7_" x="133.7" y="67.4" class="st0" width="38.4" height="38.4"/>
<g id="XMLID_10_">
</g>
<g id="XMLID_11_">
	<path id="XMLID_48_" class="st1" d="M329.9,188.6c0.6,0.5,0.9,0.9,0.9,1.1c0,0.4-0.5,0.5-1.3,0.5h-18v23.4l14.4-10.5l1.1,0.9
		c-14.5,13.4-17.5,17.4-18.8,20c-0.2,0.4-0.5,0.6-0.8,0.6c-0.2,0-0.5-0.1-0.8-0.4l-4.9-4.3c3.7-2.4,4.3-3.6,4.3-6.5v-23.2h-7.4
		c-2.4,0-5.7,0.4-7.7,1.1l-3.2-3.8c2.9,0.2,5.7,0.4,8.4,0.4h10v-15c-1.6,0.1-3.2,0.4-4.3,0.8l-2.6-3.5c2.4,0.2,4.8,0.3,7.1,0.3h10.1
		l3.8-4.5l5.7,4.7c0.6,0.4,0.9,0.9,0.9,1.2c0,0.5-0.6,0.8-1.5,0.8h-13.7V188h9l3.5-4.4L329.9,188.6z M329.1,155.6
		c0.6,0.5,0.9,0.9,0.9,1.2c0,0.4-0.5,0.6-1.3,0.6h-22.9c-5,9.7-10,17.9-15.9,24.8l-1.3-0.7c8.8-14.2,15.4-31.4,20.8-46l7.2,4
		c0.5,0.3,0.8,0.5,0.8,0.7c0,0.2-0.5,0.4-1.3,0.7c-2.5,0.8-2.9,1.2-3.8,3.1c-1.8,4-3.7,7.6-5.5,11.2h12.2l3.8-4.7L329.1,155.6z
		 M395.8,222.9c-4.6,1.1-6.4,2.2-7.6,4.4c-0.5,0.7-0.9,0.9-2.1,0.9c-12.6,0-23.5-0.3-30.1-1.4c-6.2-1-10.4-3.3-15.4-9.1
		c-0.8-1-2.1-1.6-3.2-1.6c-0.9,0-1.8,0.3-2.6,1c-3.4,3.1-5.6,5.8-8.2,10.1c-0.2,0.4-0.6,0.6-0.8,0.6c-0.2,0-0.5-0.1-0.7-0.3
		l-4.7-3.8l14.8-9.5v-33.6h-6.4c-1.3,0-2.7,0.2-3.7,0.7l-3-3.3c2.2,0.2,3.9,0.3,5.4,0.3h7l2.7-3.1l6.1,4c0.6,0.4,0.9,0.6,0.9,0.9
		c0,0.2-0.3,0.5-0.8,0.7l-3.1,1.6v31.1c0,1.3,5.7,7.5,14.5,9c2.9,0.5,7.4,0.7,12.9,0.7c8.5,0,18.9-0.6,28-1.9V222.9z M329.4,145.8
		c7.6,5.4,11.2,10.1,11.3,12.8v0.6c0,3.8-2.1,5.3-3.7,5.3s-2.2-1.2-2.2-3.7c0-3.6-3-10.4-6.2-14.1L329.4,145.8z M393.5,195.8
		c0.5,0.4,0.7,0.7,0.7,1s-0.5,0.4-1.1,0.4h-19.3c0,6.8,0,12.8,0.2,17.6v0.6c0,1.4-0.5,1.9-2.5,3c-1.1,0.5-1.9,0.8-2.4,0.8
		c-0.8,0-1-0.6-1-2.1v-0.7c0.2-5.2,0.3-11.8,0.3-19.2h-13.4c-2.4,0-5.7,0.4-7.7,1.1l-3.2-3.8c2.9,0.2,5.7,0.4,8.4,0.4h15.9v-15.5
		h-14.2l-2.1,2.2c-0.3,0.3-0.6,0.5-0.9,0.5c-0.2,0-0.5-0.1-0.7-0.3l-5.3-4.4c3.5-1.3,4.2-1.9,6.6-8s4.5-11.2,6.2-16
		c-4.1,0-7.8,0-10.9,1.1l-3.2-3.8c2.9,0.2,5.7,0.4,8.4,0.4h6.5c1.9-5.6,3.5-10.5,4.9-15.4l7.2,4.5c0.5,0.3,0.7,0.6,0.7,0.8
		s-0.2,0.4-0.7,0.6l-3.9,1.2l-3.2,8.3h17.4l3.9-4.9l6.2,5.5c0.6,0.6,0.9,1,0.9,1.2c0,0.3-0.5,0.4-1.4,0.4h-27.9l-9.3,23.7h14.6v-5.7
		c0-4.2-0.2-8.3-0.5-12l7.9,3c0.8,0.3,1.3,0.6,1.3,0.9c0,0.3-0.3,0.5-3.3,2.1v11.7h7.7l3.9-4.8l6.1,5.2c0.6,0.5,0.8,0.9,0.8,1.2
		c0,0.4-0.5,0.6-1.3,0.6h-17.2v15.5h10.1l3.8-4.8L393.5,195.8z"/>
</g>
<g id="XMLID_12_">
	<path id="XMLID_37_" class="st2" d="M683.5,225c-5.3,0.4-8.2,1.8-10.2,4.2c-0.6,0.7-1,1-1.6,1c-0.5,0-1-0.1-1.6-0.3
		c-17.2-5.6-29.3-13-35.7-26.1h-3.2V233c0,1.8-0.2,2.1-2.7,3.2c-1.3,0.6-2.2,1-2.6,1c-0.5,0-0.7-0.3-0.7-0.9c0-0.1,0.5-5.6,0.5-6.7
		v-25.9h-1c-13.3,12.7-27.5,23.1-50.9,31.7l-0.5-1.5c21.4-10.8,34.2-19.9,43.9-30.3h-32.4c-2.4,0-4.8,0.5-6.5,1.4l-4.1-3.9
		c2.7,0.1,5.4,0.2,8.4,0.2h43c0-4.3-0.1-6.8-0.4-9.5l8.4,2.3c0.7,0.2,1.1,0.3,1.1,0.5c0,0.3-0.4,0.5-3.5,2.3v4.3h37.9l4.7-5.3
		l7.8,6.2c0.7,0.5,1,0.9,1,1.2c0,0.2-0.4,0.3-1.3,0.3h-44.3c8.4,13.2,24,18.8,46.6,20.1V225z M678.5,151.3c0.6,0.5,1,1,1,1.2
		c0,0.3-0.5,0.4-1.7,0.4H637v10.7h23.4l4.8-5.3l7.2,6.4c0.5,0.4,0.7,0.7,0.7,1c0,0.2-0.4,0.3-1.3,0.3H637v10.3h23.2l4.9-5.4l6.8,6.2
		c0.6,0.5,1,1,1,1.2c0,0.3-0.5,0.4-1.6,0.4H637v10.5h26.9l5-5.4l6.9,6.2c0.7,0.6,1.1,1,1.1,1.3c0,0.2-0.6,0.3-1.8,0.3h-74
		c0,0.6,0.2,3.8,0.2,3.9c0,1.1-0.6,1.5-3.6,2.9c-1,0.4-1.6,0.6-1.9,0.6c-0.6,0-0.8-0.4-0.8-1.5c0-0.4,0.1-0.9,0.1-1.5
		c0.4-5.1,0.4-11.4,0.4-16.6v-21.2c-8.4,10-14.5,16.2-21.3,21.4l-0.8-0.9c10.4-10.9,24.1-30.3,31.4-43.9l6.7,4.2
		c1,0.6,1.4,1.1,1.4,1.4c0,0.4-0.7,0.6-2.2,1.1c-1.7,0.5-2.5,0.7-9.1,9.2h64.5l5.1-5.5L678.5,151.3z M631.4,163.5v-10.7H601v10.7
		H631.4z M631.4,176.2v-10.3H601v10.3H631.4z M631.4,189.1v-10.5H601v10.5H631.4z M626.2,135.1c9.8,2.8,14.5,6.1,14.5,10.1
		c0,2.2-1.8,3.8-3.1,3.8s-2.2-0.2-2.7-1.6c-2.2-5.2-3.8-7.7-9.4-11.4L626.2,135.1z"/>
	<path id="XMLID_44_" class="st2" d="M796.3,143.9c0.6,0.3,0.8,0.6,0.8,0.9s-0.4,0.4-1,0.7l-4.5,2.2v63.7c0,8.1,0.2,13.2,0.6,18v0.7
		c0,1.5-0.5,1.9-3,2.9c-1,0.4-1.7,0.5-2.2,0.5c-0.7,0-1-0.4-1-1.3v-7.8h-78.9v5.6c0,1.3-0.4,1.9-2.4,2.7c-0.8,0.3-1.6,0.5-2,0.5
		c-1,0-1.3-0.7-1.3-2.6v-0.7c0.2-6.3,0.4-11.5,0.4-21.6V153c0-6.2-0.1-12.3-0.4-15.6l8.1,5.9h73.6l4.3-5L796.3,143.9z M786.2,222.2
		v-76.6h-78.9v76.6H786.2z M780.5,167.2c0.5,0.4,0.7,0.7,0.7,1s-0.4,0.3-1,0.3h-22.5v40c0,4.5-1.1,6.5-8.4,9.9
		c-0.4,0.2-0.7,0.3-1,0.3c-0.5,0-0.6-0.3-0.7-0.7c-0.7-3.4-2.2-6-13.3-9.1l0.5-1.5c7.3,1.4,11.5,2.1,14,2.1c3.2,0,3.6-1.1,3.6-3.4
		v-37.6h-1.3c-9.6,14.8-21.3,27.5-38.5,38.8l-1.2-1c16-12.8,27.1-24.7,33.5-37.8h-21.9c-2.5,0-6,0.4-8,1.2l-3.3-3.9
		c3,0.2,6,0.4,8.7,0.4h32V163c0-6.3,0-11.1-0.2-15l8.4,3.5c0.7,0.3,1,0.5,1,0.7c0,0.1-0.1,0.3-0.6,0.5l-3.2,1.6v11.8h10.9l4.8-5.3
		L780.5,167.2z"/>
</g>
<g id="XMLID_15_">
	<path id="XMLID_28_" class="st1" d="M224.5,99.8h37.9v9.9h-49.7V22.4h11.8V99.8z"/>
	<path id="XMLID_30_" class="st1" d="M289.4,109.8h-11.8V22.4h11.8V109.8z"/>
	<path id="XMLID_32_" class="st1" d="M384.9,109.8h-9.2c-1.1,0-1.9-0.3-2.6-0.8c-0.7-0.5-1.1-1.2-1.5-2l-8.2-21.1h-39.3L316,107
		c-0.3,0.7-0.8,1.4-1.5,2c-0.7,0.6-1.5,0.9-2.6,0.9h-9.2l35-87.4h12L384.9,109.8z M327.5,77.3h32.7l-13.7-35.6
		c-0.9-2.2-1.8-4.9-2.6-8.2c-0.4,1.7-0.9,3.2-1.3,4.6s-0.8,2.6-1.3,3.7L327.5,77.3z"/>
	<path id="XMLID_35_" class="st1" d="M404.4,22.8c0.5,0.3,1.1,0.8,1.7,1.6l50.7,65.9c-0.1-1.1-0.2-2.1-0.2-3.1c0-1-0.1-2-0.1-2.9
		V22.4h10.4v87.4h-6c-0.9,0-1.7-0.2-2.4-0.5c-0.6-0.3-1.3-0.9-1.9-1.6L406,41.8c0.1,1,0.1,2,0.2,3c0,1,0.1,1.9,0.1,2.7v62.3h-10.4
		V22.4h6.1C403.1,22.4,403.9,22.5,404.4,22.8z"/>
</g>
<g id="XMLID_13_">
	<path id="XMLID_14_" class="st2" d="M536,105.7c3,0,5.7-0.2,8.1-0.5c2.4-0.3,4.7-0.8,6.8-1.4c2.1-0.6,4.1-1.4,6-2.2
		c1.9-0.9,3.8-1.9,5.7-3V75.4H546c-0.4,0-0.8-0.1-1.1-0.4c-0.3-0.3-0.5-0.6-0.5-1v-3.4h23.9v30.7c-2.2,1.5-4.4,2.8-6.7,4
		c-2.3,1.2-4.8,2.2-7.4,3c-2.6,0.8-5.5,1.4-8.5,1.8c-3.1,0.4-6.4,0.6-10,0.6c-6.2,0-11.9-1-17.1-3.1s-9.6-5.1-13.2-8.9
		c-3.7-3.8-6.5-8.5-8.6-13.9c-2-5.4-3.1-11.5-3.1-18.2c0-6.7,1-12.7,3.1-18.1c2-5.4,4.9-10.1,8.7-13.9c3.7-3.8,8.3-6.8,13.6-8.9
		c5.4-2.1,11.3-3.1,18-3.1c3.3,0,6.3,0.2,9.1,0.7c2.8,0.4,5.4,1.1,7.8,2c2.4,0.9,4.6,2,6.7,3.2c2.1,1.3,4.1,2.8,6,4.4l-1.6,2.7
		c-0.4,0.6-0.9,0.9-1.5,0.9c-0.4,0-0.7-0.1-1-0.2c-0.6-0.2-1.5-0.8-2.7-1.7c-1.2-0.9-2.7-1.8-4.7-2.8c-2-1-4.4-1.9-7.4-2.6
		c-3-0.8-6.6-1.2-10.8-1.2c-5.6,0-10.7,0.9-15.2,2.7c-4.5,1.8-8.4,4.4-11.6,7.7c-3.2,3.3-5.7,7.4-7.4,12.2
		c-1.7,4.8-2.6,10.2-2.6,16.2c0,6.1,0.9,11.6,2.6,16.4c1.7,4.8,4.2,8.9,7.4,12.3c3.2,3.4,6.9,5.9,11.4,7.7
		C525.7,104.8,530.6,105.7,536,105.7z"/>
	<path id="XMLID_17_" class="st2" d="M592.8,70.8v39h-6.2V23.5h22c10,0,17.4,1.9,22.3,5.8c4.9,3.8,7.4,9.5,7.4,16.9
		c0,3.3-0.6,6.3-1.7,9c-1.1,2.7-2.8,5.1-4.9,7.2c-2.1,2.1-4.7,3.7-7.7,5.1c-3,1.3-6.4,2.2-10.2,2.6c1,0.6,1.9,1.4,2.6,2.4l29.7,37.3
		h-5.4c-0.7,0-1.2-0.1-1.7-0.4c-0.5-0.2-0.9-0.6-1.4-1.2l-27.7-35c-0.7-0.9-1.4-1.5-2.2-1.9c-0.8-0.4-2-0.5-3.7-0.5H592.8z
		 M592.8,66.1h15c3.8,0,7.3-0.5,10.3-1.4c3-0.9,5.6-2.2,7.7-3.9s3.7-3.8,4.8-6.2c1.1-2.4,1.6-5.1,1.6-8.1c0-6.1-2-10.7-6-13.7
		c-4-3-9.9-4.5-17.6-4.5h-15.8V66.1z"/>
	<path id="XMLID_20_" class="st2" d="M730.7,66.6c0,6.7-1,12.7-3,18.1c-2,5.4-4.8,10.1-8.4,13.9c-3.6,3.8-8,6.8-13,8.9
		c-5,2.1-10.6,3.1-16.8,3.1c-6.1,0-11.6-1-16.7-3.1c-5-2.1-9.4-5.1-13-8.9c-3.6-3.8-6.4-8.5-8.5-13.9c-2-5.4-3-11.5-3-18.1
		c0-6.6,1-12.7,3-18.1c2-5.4,4.8-10.1,8.5-13.9c3.6-3.8,8-6.8,13-8.9c5-2.1,10.6-3.2,16.7-3.2c6.1,0,11.7,1,16.8,3.1
		c5,2.1,9.4,5.1,13,8.9c3.6,3.9,6.4,8.5,8.4,13.9C729.7,53.9,730.7,60,730.7,66.6z M724.3,66.6c0-6-0.8-11.4-2.5-16.2
		c-1.7-4.8-4-8.9-7.1-12.2c-3-3.3-6.7-5.9-11-7.7c-4.3-1.8-9-2.7-14.2-2.7c-5.1,0-9.8,0.9-14.1,2.7c-4.3,1.8-7.9,4.3-11,7.7
		c-3.1,3.3-5.5,7.4-7.1,12.2c-1.7,4.8-2.5,10.2-2.5,16.2c0,6.1,0.8,11.5,2.5,16.3c1.7,4.8,4.1,8.8,7.1,12.2c3.1,3.3,6.7,5.9,11,7.6
		c4.3,1.7,8.9,2.6,14.1,2.6c5.2,0,10-0.9,14.2-2.6c4.3-1.7,7.9-4.3,11-7.6c3-3.3,5.4-7.4,7.1-12.2C723.4,78.1,724.3,72.7,724.3,66.6
		z"/>
	<path id="XMLID_23_" class="st2" d="M777.5,105.3c4.2,0,7.9-0.7,11.1-2.2c3.3-1.4,6.1-3.4,8.3-6c2.3-2.6,4-5.6,5.2-9.1
		c1.2-3.5,1.8-7.2,1.8-11.3V23.5h6.2v53.4c0,4.8-0.8,9.2-2.3,13.3c-1.5,4.1-3.7,7.7-6.5,10.8c-2.8,3.1-6.3,5.5-10.3,7.2
		c-4.1,1.7-8.6,2.6-13.6,2.6c-5,0-9.6-0.9-13.6-2.6c-4.1-1.7-7.5-4.2-10.3-7.2c-2.8-3.1-5-6.7-6.5-10.8c-1.5-4.1-2.3-8.6-2.3-13.3
		V23.5h6.3v53.3c0,4,0.6,7.8,1.8,11.3c1.2,3.5,2.9,6.5,5.2,9.1c2.3,2.6,5,4.6,8.3,6C769.6,104.6,773.3,105.3,777.5,105.3z"/>
	<path id="XMLID_25_" class="st2" d="M837.7,75v34.8h-6.2V23.5h22.3c10.1,0,17.8,2.2,22.9,6.6c5.1,4.4,7.7,10.8,7.7,19
		c0,3.8-0.7,7.3-2.1,10.4c-1.4,3.2-3.4,5.9-6.1,8.2c-2.6,2.3-5.9,4.1-9.6,5.4c-3.8,1.3-8.1,1.9-12.8,1.9H837.7z M837.7,70h16.1
		c3.8,0,7.2-0.5,10.3-1.6c3-1.1,5.6-2.5,7.7-4.4c2.1-1.9,3.7-4.1,4.8-6.6c1.1-2.5,1.7-5.3,1.7-8.3c0-6.6-2-11.7-6.1-15.3
		c-4.1-3.6-10.2-5.4-18.3-5.4h-16.1V70z"/>
</g>
</svg>
