<?xml version="1.0" encoding="utf-8"?>
<!-- Generator: Adobe Illustrator 19.0.0, SVG Export Plug-In . SVG Version: 6.00 Build 0)  -->
<svg version="1.1" id="Calque_1" xmlns="http://www.w3.org/2000/svg" xmlns:xlink="http://www.w3.org/1999/xlink" x="0px" y="0px"
	 viewBox="0 0 854 150" style="enable-background:new 0 0 854 150;" xml:space="preserve">
<style type="text/css">
	.st0{fill:#FCFCFC;}
	.st1{fill:#DECCCC;}
	.st2{fill:#303030;}
	.st3{fill:#9B114E;}
	.st4{fill:#780E0E;}
	.st5{fill:#4D1077;}
	.st6{fill:#A8268A;}
	.st7{fill:#A80F0F;}
	.st8{fill:#AE2412;}
	.st9{fill:#BB2108;}
	.st10{fill:#8B150C;}
	.st11{fill:#45459A;}
	.st12{fill:#A9092B;}
	.st13{fill:#8B1515;}
	.st14{fill:#BB1111;}
	.st15{fill:#881212;}
	.st16{fill:#7A0808;}
	.st17{fill:#600808;}
	.st18{fill:#921C81;}
	.st19{fill:#56267F;}
	.st20{fill:#630B0B;}
	.st21{fill:#CD2F15;}
	.st22{fill:#790B7F;}
	.st23{fill:#563A9A;}
	.st24{fill:#B11239;}
	.st25{fill:#4F0202;}
	.st26{fill:#880A0A;}
	.st27{fill:#981010;}
	.st28{fill:#B90822;}
	.st29{fill:#74108B;}
	.st30{fill:#512083;}
	.st31{fill:#7F0D0D;}
	.st32{fill:#812484;}
	.st33{fill:#AC1400;}
	.st34{fill:#830C03;}
	.st35{fill:#9D1671;}
	.st36{fill:#FEFEFE;}
	.st37{fill:#742A91;}
	.st38{fill:#742991;}
	.st39{fill:#CB3F30;}
	.st40{fill:#CB4030;}
	.st41{fill:#CB3F2E;}
	.st42{fill:#B32929;}
	.st43{fill:#AD2C2C;}
	.st44{fill:#C33B25;}
	.st45{fill:#5E57A6;}
	.st46{fill:#8D2B2B;}
	.st47{fill:#8C2A2A;}
	.st48{fill:#8C2929;}
	.st49{fill:#8D2A2A;}
	.st50{fill:#8E2C2C;}
	.st51{fill:#693E8F;}
	.st52{fill:#683E8E;}
	.st53{fill:#C1233A;}
</style>
<g>
	<g>
		<path class="st0" d="M60.5,6.5c266,0,532,0,798.1,0c1,0,1.2,0.2,1.2,1.2c0,51.2,0,102.5,0,153.7c0,1-0.2,1.2-1.2,1.2
			c-285.7,0-571.4,0-857.1,0c-1.1,0-1.2-0.3-1.2-1.2c0-51.2,0-102.5,0-153.7c0-0.9,0.2-1.1,1.1-1.1c19,0,38,0,57,0
			c0,0.1,0,0.3-0.1,0.4c-1.9,0.4-3.9,0.4-5.8,0.6c-4,0.5-7.9,1.5-11.7,2.8c-0.5,0.2-1,0.4-1.5,0.7c-3.9,1.6-7.6,3.7-10.9,6.2
			c-5,3.9-9.1,8.5-11.8,14.3c-2.4,4.8-3.5,9.8-3.6,15.1c0.1,4.5,0.9,9,2.7,13.2c1.6,4.2,4,7.8,7,11.1c1.6,1.7,3.2,3.4,5.1,4.7
			c0.1,0.1,0.2,0.1,0.3,0.2c3.7,3,7.8,5.3,12.2,7c0.3,0.1,0.7,0.2,1,0.4c3.3,1.2,6.6,2.2,10.1,2.5c2.5,0.7,5,1.1,7.4,2.2
			c0.2,0.1,0.4,0.2,0.6,0.3c2.8,1.4,5.5,3,7.7,5.3c0.2,0.2,0.4,0.4,0.6,0.6c2.1,2.3,4.1,4.7,4.9,7.7c0.4,2,0.4,3.9-0.2,5.9
			c-1,2.8-2.7,5.2-5.1,7c-0.1,0.1-0.3,0.2-0.4,0.3c-0.1,0.1-0.3,0.2-0.4,0.3c-2.8,1.9-5.8,3.1-9.1,3.9c-0.1,0-0.3,0-0.4,0.1
			c-3.2,0.5-6.4,1.1-9.7,0.4c-3.5-0.5-6.9-1.6-10.2-2.9c-0.3-0.1-0.6-0.2-0.8-0.4c-3.9-1.7-7.6-3.8-11.1-6.2c-0.5-0.5-1-0.4-1.5,0.1
			c-3.1,3.5-6.2,7-9.3,10.4c-1,1.1-1.9,2.2-2.9,3.2c-0.7,0.7-0.7,1.2,0,1.9c3.6,3.8,7.8,6.7,12.4,9.1c0.4,0.2,0.7,0.4,1.1,0.5
			c4.3,2.2,8.9,3.5,13.6,4.4c0.1,0,0.3,0,0.4,0.1c4.8,0.9,9.6,0.9,14.5,0.8c0.8,0,1.6-0.3,2.3-0.4c4-0.2,7.8-1.2,11.6-2.4
			c0.6-0.2,1.3-0.4,1.9-0.6c4-1.6,7.9-3.5,11.4-6c3.9-2.7,7.4-6,10.2-9.9c3.3-4.6,5.5-9.6,6.4-15.1c0.1-0.3,0.1-0.6,0.1-0.9
			c0.4-3.1,0.3-6.2-0.2-9.3c-0.4-2.8-1.2-5.5-2.3-8.1c-1.4-3.3-3.3-6.3-5.5-9.1c-3.1-3.8-6.8-6.8-10.9-9.4c-0.4-0.3-0.8-0.5-1.2-0.7
			c-4.1-2.4-8.5-4.2-13.1-5.4c-1.5-0.4-3-0.7-4.6-0.9c-3.4-0.3-6.5-1.4-9.6-2.8c-0.5-0.3-1.1-0.4-1.6-0.8c-0.5-0.4-1-0.7-1.5-1
			c-2.2-1.4-4.2-3.1-5.8-5.3c-0.4-0.6-0.8-1.2-1.2-1.8c-0.2-0.3-0.4-0.6-0.6-0.9c-1.3-2.2-1.6-4.7-1.4-7.2c0-0.4,0.2-0.8,0.2-1.3
			c0.6-2.6,2-4.8,3.8-6.7c0.5-0.5,0.9-1,1.5-1.4c3-2.5,6.6-4,10.4-4.8c0.4-0.1,0.8-0.3,1.3-0.3c0.5-0.1,0.9-0.2,1.3-0.2
			c3.7-0.5,7.4-0.3,11,0.7c0.6,0.1,1.2,0.4,1.8,0.6c3.1,1,6,2.4,8.4,4.7c0.8,0.8,1.6,1.7,2.3,2.6c0.5,0.6,0.8,0.1,1.2-0.2
			c3.4-3.2,6.8-6.4,10-9.8c1.3-1.3,2.7-2.4,4-3.7c0.6-0.6,0.6-1,0-1.7c-3-3.1-6.4-5.6-10.2-7.7c-0.2-0.1-0.4-0.2-0.6-0.3
			c-4.3-2.3-8.9-3.9-13.7-4.9C70,8.1,69.8,8,69.5,8c-2.7-0.6-5.4-0.7-8.1-1c-0.3,0-0.6,0-0.9-0.2C60.4,6.7,60.4,6.6,60.5,6.5z"/>
		<path class="st1" d="M60.5,6.5c0,0.1,0,0.1,0,0.2c-0.6,0.5-1.3,0.4-2,0.1c0-0.1-0.1-0.1-0.1-0.2c0-0.1,0-0.1,0-0.2
			C59,6.5,59.8,6.5,60.5,6.5z"/>
		<path class="st2" d="M318.9,90.8c0-13.5,3.1-24.3,10.4-33.6c7.5-9.7,17.6-15.1,29.5-17.1c9.2-1.5,18.4-1.1,27.3,2.1
			c16.5,6,26.5,17.8,30.3,34.9c2.6,11.6,1.7,23.2-3.3,34.1c-6.7,14.7-18.3,23.5-34.1,26.6c-10.9,2.1-21.7,1.3-31.9-3.2
			c-14.6-6.4-23.3-17.8-26.9-33.2C319.2,97.3,318.8,93.1,318.9,90.8z"/>
		<path class="st2" d="M313.1,40.6c-2.3,2.9-4.5,5.6-6.7,8.3c-8.6,10.7-17.2,21.3-25.9,32c-1.7,2.1-3.5,4.1-6.1,5.5
			c5.4,2.1,8,6.9,11.1,11.1c9.8,13.1,19.5,26.2,29.3,39.3c0.2,0.3,0.4,0.6,0.7,1c-0.5,0-0.9,0-1.3,0c-5.1,0-10.2,0-15.2,0
			c-3,0-5.2-1.1-7.1-3.6c-9.1-12-18.4-24-27.6-36c-1.7-2.2-4-3.1-6.7-3.1c-1.8,0-3.7,0-5.5-0.1c-0.9,0-1.2,0.2-1.2,1.2
			c0,13.3,0,26.6,0,39.8c0,0.4,0,0.7,0,1.1c0.1,0.5-0.2,0.7-0.7,0.7c-5.6,0-11.2,0-16.8,0c-0.6,0-0.8-0.2-0.7-0.8c0-0.2,0-0.5,0-0.7
			c0-31.5,0-63,0-94.5c0-1.1,0.2-1.5,1.4-1.5c5.2,0.1,10.3,0.1,15.5,0c1,0,1.4,0.2,1.4,1.3c0,12.8,0,25.7-0.1,38.5
			c0,1,0.2,1.3,1.2,1.2c1.6-0.1,3.3,0,4.9-0.2c2.3-0.3,4.1-1.4,5.5-3.2c8.4-10.7,16.9-21.5,25.4-32.2c0.4-0.6,0.9-1.1,1.3-1.7
			c1.9-2.4,4.4-3.6,7.5-3.6C302.2,40.6,307.5,40.6,313.1,40.6z"/>
		<path class="st2" d="M511.3,72.3c0,9.2,0.1,18.5,0,27.7c-0.1,8.4-2.3,16.2-7.2,23.1c-5.4,7.7-13,12.4-22.1,14.4
			c-9.5,2.1-18.9,1.8-28-1.8c-12.4-5-19.7-14.4-22.5-27.4c-0.7-3.3-1-6.7-1-10.1c0-18.8,0-37.7,0-56.5c0-1.1,0.3-1.3,1.3-1.3
			c5.2,0.1,10.3,0.1,15.5,0c1.1,0,1.5,0.2,1.5,1.4c0,19,0,38.1,0,57.1c0,4.5,0.8,8.9,2.9,13c3.2,6.4,8.6,9.9,15.6,10.9
			c4.7,0.6,9.3,0.2,13.7-1.8c6.5-3,10-8.4,11.5-15.2c0.5-2.5,0.7-5,0.7-7.5c0-18.8,0-37.7,0-56.5c0-1.1,0.2-1.4,1.3-1.4
			c5.2,0.1,10.3,0.1,15.5,0c1,0,1.3,0.2,1.3,1.3C511.3,51.9,511.3,62.1,511.3,72.3z"/>
		<path class="st2" d="M113,89.2c0-15.8,0-31.6,0-47.4c0-1,0.2-1.2,1.2-1.2c19.7,0,39.4,0,59.1,0c1,0,1.2,0.3,1.2,1.2
			c0,4-0.1,8.1,0,12.1c0,1-0.3,1.1-1.2,1.1c-13.6,0-27.2,0-40.8,0c-0.9,0-1.3,0.2-1.3,1.2c0.1,8.1,0,16.2,0,24.4
			c0,1,0.2,1.4,1.3,1.4c10.5-0.1,21,0,31.4-0.1c1,0,1.4,0.2,1.3,1.3c-0.1,3.8-0.1,7.7,0,11.5c0,1-0.3,1.2-1.2,1.2
			c-10.6,0-21.1,0-31.7,0c-1,0-1.2,0.2-1.2,1.2c0,8.4,0,16.9,0,25.3c0,0.9,0.2,1.1,1.1,1.1c13.6,0,27.3,0,40.9,0
			c1,0,1.2,0.3,1.2,1.2c-0.1,4,0,8.1,0,12.1c0,0.8-0.1,1.1-1,1.1c-19.8,0-39.6,0-59.4,0c-1,0-1.1-0.4-1.1-1.2
			C113,120.8,113,105,113,89.2z"/>
		<path class="st2" d="M192.2,89.2c0-15.8,0-31.6,0-47.4c0-1,0.2-1.3,1.2-1.2c5.3,0.1,10.6,0.1,16,0c0.9,0,1.1,0.2,1.1,1.1
			c0,31.7,0,63.3,0,95c0,0.9-0.2,1.1-1.1,1.1c-5.4-0.1-10.7,0-16.1,0c-0.9,0-1.1-0.2-1.1-1.1C192.2,120.8,192.2,105,192.2,89.2z"/>
		<path class="st2" d="M657.6,128.4c0,6.6,0,13.2,0,19.8c0,0.9-0.2,1.3-1.2,1.2c-1-0.1-2.4,0.3-3-0.2c-0.7-0.6-0.2-2-0.2-3.1
			c0-18.1,0-36.3,0-54.4c0-1.1,0.2-1.5,1.3-1.3c0.3,0.1,0.6,0,1,0c1.1-0.1,1.5,0.4,1.6,1.5c0.1,2,0.2,4,0.3,5.7c1-0.9,2-1.8,3.1-2.7
			c5.3-4.8,11.4-6.2,18.2-4.6c5,1.2,8.7,4.3,10.5,9.1c3,7.8,3.2,15.7,0.1,23.5c-3,7.5-9.5,11.6-17.5,11.7
			c-5.5,0.1-10.3-1.6-13.9-5.9C657.9,128.4,657.8,128.4,657.6,128.4z"/>
		<path class="st2" d="M809.6,127.3c-2.5,2.1-4.7,4.1-7.5,5.4c-4.6,2.1-9.4,2.7-14.3,1.3c-4-1.2-6.5-3.9-7.3-8.1
			c-0.8-4.4,0.7-7.8,4.4-10.4c3.4-2.3,7.3-3.4,11.3-4.1c4.1-0.8,8.2-1.1,12.4-1.2c0.4,0,0.9,0.1,0.9-0.6c-0.1-2.9,0.2-5.8-0.5-8.7
			c-1.4-6-5.8-8.9-12.2-8.1c-3.8,0.4-6.9,2-9.8,4.3c-0.4,0.3-0.9,0.7-1.3,1c-1.1,0.6-2.9-0.5-2.9-1.8c0-0.2,0.2-0.3,0.3-0.5
			c6.5-6.4,15.9-7.6,22.4-5.2c4.8,1.8,7,5.7,7.9,10.4c0.3,1.5,0.4,3,0.4,4.5c0,9,0,17.9,0,26.9c0,0.5,0.6,1.4-0.7,1.5
			c-1.9,0.1-2.6-0.2-2.8-1.5C810,130.8,809.8,129.2,809.6,127.3z"/>
		<path class="st2" d="M626.7,127.3c-1.8,1.5-3.3,2.9-5.1,4c-5.2,3.2-10.7,4.2-16.6,2.6c-4-1.1-6.5-3.9-7.3-8.1
			c-0.8-4.4,0.7-7.9,4.4-10.4c3.4-2.3,7.2-3.3,11.2-4.1c4.1-0.8,8.2-1.1,12.4-1.2c0.4,0,0.9,0.2,0.9-0.6c-0.1-3,0.2-5.9-0.5-8.8
			c-1.4-5.9-5.8-8.8-12.1-8c-3.8,0.4-6.9,2-9.8,4.3c-0.4,0.3-0.8,0.7-1.2,0.9c-1.2,0.7-3-0.3-3-1.7c0-0.3,0.2-0.3,0.3-0.5
			c4.8-5.5,15.7-8,22.5-5.2c4.7,1.9,6.9,5.7,7.9,10.4c0.3,1.5,0.4,3,0.4,4.5c0,9,0,17.9,0,26.9c0,0.5,0.6,1.4-0.6,1.5
			c-1.9,0.1-2.6-0.2-2.8-1.4C627.1,130.8,627,129.2,626.7,127.3z"/>
		<path class="st3" d="M94.8,87.6c2.5,5.2,3.3,10.7,2.8,16.5c0,0.5-0.1,1-0.2,1.5c-0.1,0.8-0.7,0.7-1.3,0.6
			c-3.2-0.5-6.4-1.2-9.7-1.8c-4-0.7-8.1-1.5-12.1-2.2c-0.8-0.1-1.6-0.3-2.2-0.8c-0.9-2.9-2.8-5.2-4.8-7.4c1-0.8,2.3-0.8,3.5-1.1
			c7.5-1.8,14.9-3.6,22.4-5.3C93.7,87.5,94.2,87.3,94.8,87.6z"/>
		<path class="st2" d="M744.2,110.8c0-5,0-9.9,0-14.9c0-0.9-0.1-1.2-1.1-1.1c-1.8,0.1-3.5,0-5.3,0c-0.5,0-1,0-1.2-0.5
			c-0.3-0.6-0.2-1.3-0.1-2c0.1-0.3,0.5-0.2,0.8-0.2c2-0.2,3.9-0.4,5.9-0.4c0.9,0,1.1-0.3,1.2-1.2c0.3-4.7,0.6-9.3,1-14
			c0.1-1.3,1.9-2.2,3-1.5c0.4,0.3,0.2,0.7,0.2,1.1c0,4.8,0,9.6,0,14.4c0,1,0.3,1.2,1.2,1.2c4,0,8.1,0,12.1,0c0.8,0,1.1,0.2,1,1.1
			c0,2.1,0,2.1-2,2.1c-3.8,0-7.5,0-11.3,0c-0.9,0-1,0.3-1,1.1c0,9.6,0,19.1,0,28.7c0,2.3,0.6,4.5,2.7,5.8c2,1.2,4.3,1.2,6.5,0.4
			c1.2-0.4,2.3-1.1,3.3-1.9c0.8-0.7,1.4-0.6,1.9,0.3c1.2,1.9,1.4,1.4-0.4,2.7c-4.2,3-8.8,3.8-13.6,1.9c-3.6-1.4-4.8-4.6-4.8-8.1
			C744.2,120.6,744.2,115.7,744.2,110.8z"/>
		<path class="st2" d="M550.4,112.1c0,3.1,0.3,6.1,1.4,8.9c2.6,7.2,8.8,11,16.4,10.2c3.6-0.4,6.8-1.7,9.6-4c1.2-1,2.9-0.5,3.2,1.1
			c0.1,0.5-0.4,0.8-0.7,1.1c-2.5,2.4-5.5,3.7-8.8,4.4c-4.3,0.9-8.6,1-12.8-0.4c-6.2-2.1-9.9-6.7-11.7-12.8
			c-1.7-6.1-1.7-12.3,0.4-18.3c2.9-7.9,8.7-12,16.9-12.7c5.1-0.4,10.1,0.4,14.4,3.5c0.6,0.4,2.1,0.6,1.3,1.8
			c-1.1,1.9-1.6,1.9-3.3,0.8c-4.8-3.2-10-3.9-15.5-2.2c-6,1.8-9,6.4-10.3,12.3C550.6,107.8,550.4,109.9,550.4,112.1z"/>
		<path class="st4" d="M43.2,33.7c-2.4,2.2-4.3,4.6-5.1,7.8c-0.1,0.6-0.4,0.6-0.9,0.4c-0.4-0.1-0.7-0.3-1.1-0.5
			c-5.5-2.7-10.9-5.4-16.4-8.2c-0.9-0.4-1.8-0.8-2.7-1.3c-0.3-0.2-0.9-0.2-0.8-0.9c1.3-3.2,3.4-5.9,5.6-8.5c1.8-2.1,3.8-4.1,6.1-5.6
			c0.4-0.3,0.6,0,0.8,0.2c1.6,1.6,3,3.3,4.5,4.9c2.1,2.3,4.1,4.5,6.2,6.8c1.2,1.3,2.3,2.6,3.5,3.9C43.3,33.1,43.4,33.4,43.2,33.7z"
			/>
		<path class="st5" d="M55.7,140.6c-2.6,0.7-5.2,0.5-7.8,0.5c-3.2,0-6.3-0.2-9.4-1c-0.2-0.4,0-0.8,0.2-1.1c2.5-6.2,5-12.4,7.5-18.7
			c0.2-0.4,0.3-0.9,0.8-1c3.4,0.5,6.7-0.2,10.1-0.5c0.3,0.3,0.4,0.8,0.3,1.2c-0.3,1.8-0.1,3.6-0.3,5.4c-0.2,0.8-0.2,1.5-0.2,2.3
			c0,0.8,0,1.5-0.1,2.3c-0.2,0.7-0.2,1.5-0.1,2.2c0,0.8,0,1.7-0.2,2.5c-0.1,0.7-0.1,1.4,0,2.1C56.3,138.1,56.3,139.4,55.7,140.6z"/>
		<path class="st6" d="M66.7,114.5c2.2-1.8,4-4,5.1-6.7c1.2-0.6,2.5-0.5,3.7-0.6c5.7-0.3,11.3-0.6,17-0.9c1.6-0.1,3.2-0.2,4.8,0.1
			c-0.8,5.7-3.1,10.8-6.5,15.4c-2.8-0.6-5.4-1.6-8.2-2.3c-4.9-1.4-9.8-2.9-14.7-4.4C67.5,114.9,67,114.8,66.7,114.5z"/>
		<path class="st7" d="M49.7,59.5c1.9,0.6,3.7,1.4,5.6,2c2.2,0.7,4.6,0.6,6.8,1.2c0.7,0.2,1.3,0.4,2,0.5c0.2,0.5,0.1,1,0,1.5
			c-1.6,7.4-3.1,14.8-4.8,22.2c-0.1,0.5,0.1,1.2-0.8,1.2c-2.4-0.9-4.9-1.4-7.4-2.2c-0.8-0.8-0.5-1.9-0.6-2.9c0-0.7,0.1-1.4,0-2.1
			c-0.2-0.8-0.2-1.7-0.2-2.5c0-0.7,0.1-1.5-0.1-2.2C50,75.6,50,74.9,50,74.2c0-0.7,0.1-1.4,0-2.1c-0.2-0.8-0.2-1.7-0.2-2.5
			c0-0.8,0.1-1.5-0.1-2.2c-0.1-0.7-0.1-1.4-0.1-2.1c0-0.7,0.1-1.4-0.1-2.1C49.4,61.9,49,60.7,49.7,59.5z"/>
		<path class="st8" d="M39.8,50.9c0.4,0.6,0.8,1.1,1.1,1.7c-4.3,7.5-8.7,14.9-13,22.4c-0.2,0.3-0.4,0.6-0.6,0.9
			C22,71.6,17.8,66.4,15.3,60c0.2-0.4,0.5-0.5,0.9-0.6C24.1,56.6,31.9,53.8,39.8,50.9z"/>
		<path class="st2" d="M837.6,102c0-10.2,0-20.5,0-30.7c0-1,0.3-1.3,1.3-1.2c1,0.1,2.3-0.4,2.9,0.2c0.7,0.7,0.2,2,0.2,3
			c0,19.8,0,39.6,0,59.3c0,1-0.1,1.5-1.3,1.3c-1-0.2-2.4,0.4-3-0.2c-0.5-0.6-0.2-1.9-0.2-2.9C837.6,121.2,837.6,111.6,837.6,102z"/>
		<path class="st9" d="M40.8,83.3c-4.8-1.7-9.3-4.1-13.2-7.4c-0.1-0.3,0-0.5,0.2-0.6c2.4-2.3,4.8-4.5,7.2-6.7c2.2-2.1,4.7-4,6.6-6.4
			c0.8-0.9,1.8-1.2,2.5-2.1c0.7-0.9,1.6-1.8,2.7-2.3c0.5,0.3,1,0.6,1.5,0.9c0.3,0.6,0,1.2-0.1,1.7c-2.3,7.3-4.5,14.6-6.8,21.8
			C41.3,82.7,41.2,83.1,40.8,83.3z"/>
		<path class="st10" d="M39.8,50.9c-0.2,0.7-0.9,0.7-1.3,0.8c-6.3,2.3-12.7,4.6-19.1,6.8c-1.4,0.5-2.8,1-4.2,1.5
			c-1.9-4.3-2.7-8.8-2.7-13.5c0.1-0.2,0.1-0.6,0.4-0.6c3.7,0.3,7.4,1,11.1,1.6c4.5,0.7,9.1,1.4,13.6,2.1c0.6,0.1,1.2,0.1,1.7,0.5
			C39.6,50.3,39.8,50.6,39.8,50.9z"/>
		<path class="st11" d="M23.5,135.1c-5-2.3-9.3-5.6-13.1-9.6c-0.4-0.4-0.4-0.7,0-1.1c4.4-4.9,8.7-9.7,13-14.6
			c0.7-0.8,1.1-0.1,1.5,0.2c0.5,0.7,0.4,1.5,0.3,2.3c-0.2,0.7-0.2,1.3-0.1,2c0,0.6,0,1.2-0.1,1.8c-0.2,0.7-0.2,1.3-0.1,2
			c0,0.6,0,1.2-0.1,1.8c-0.2,0.7-0.2,1.3-0.1,2c0,0.6,0,1.2-0.1,1.8c-0.2,0.7-0.2,1.3-0.1,2c0,0.6,0,1.2-0.1,1.8
			c-0.2,0.7-0.2,1.3-0.1,2c0,0.6,0,1.2-0.1,1.8c-0.2,0.7-0.2,1.3-0.1,2C23.8,134.1,24,134.7,23.5,135.1z"/>
		<path class="st12" d="M78.3,69.3c4.2,2.5,7.9,5.6,10.9,9.4c0.1,0.6-0.4,0.7-0.7,1c-6.7,4.5-13.3,9.1-20,13.5
			c-0.4,0.3-0.9,1-1.5,0.1c0-0.9,0.5-1.6,0.8-2.3c3.3-6.9,6.3-13.9,9.6-20.7C77.6,69.9,77.6,69.3,78.3,69.3z"/>
		<path class="st13" d="M12.8,46.1c-0.1,0.2-0.2,0.3-0.2,0.5c0.1-5.4,1.2-10.6,3.8-15.4c0.8,0.8,2,1,3,1.5c5.9,3,11.8,5.9,17.6,8.8
			c0.4,0.2,0.8,0.7,1.2,0c-0.1,0.4-0.2,0.8-0.2,1.2c-0.4,0.4-0.9,0.4-1.5,0.5C28.5,44.1,20.7,45.3,12.8,46.1z"/>
		<path class="st14" d="M58.5,88.1c0.6-0.8,0.6-1.8,0.8-2.7c1.4-6.5,2.8-13.1,4.2-19.6c0.2-0.9,0.4-1.8,0.6-2.6
			c4.7,1.2,9.1,3,13.2,5.5c0.3,0.8-0.2,1.2-0.7,1.6c-1.5,1.6-3.1,3.2-4.6,4.8c-4.1,4.2-8,8.6-12.2,12.7c-0.2,0.2-0.4,0.6-0.9,0.5
			C58.8,88.3,58.6,88.2,58.5,88.1z"/>
		<path class="st15" d="M40.3,10.1c4.3-1.8,8.8-2.7,13.5-3.2c1.5-0.2,3-0.2,4.5-0.3l0,0.1c0,0.1,0,0.3-0.1,0.3
			c-1.3,0.1-1.4,1.1-1.5,2.1c-0.2,0.5-0.1,1-0.1,1.5c0,0.4,0,0.8-0.1,1.1c-0.2,0.5-0.2,1-0.1,1.5c0,0.4,0,0.9-0.1,1.3
			C56,15,56,15.4,56.1,15.9c0,0.5-0.1,1-0.2,1.4c-0.2,0.5-0.1,0.9-0.1,1.4c0,0.4,0,0.9-0.1,1.3c-0.2,0.5-0.2,0.9-0.1,1.4
			c0,0.5-0.1,1-0.2,1.4c-0.2,0.5-0.1,1-0.1,1.4c0,0.4,0,0.9-0.1,1.3C55,26,55,26.5,55.1,27c-0.1,0.5,0,1.1-0.4,1.6
			c-0.4,0.1-0.8,0.2-1.2,0.3c-0.8-0.3-1-1-1.4-1.5c-3.7-5.2-7.5-10.4-11.2-15.7C40.6,11.2,40,10.8,40.3,10.1z"/>
		<path class="st2" d="M716.8,112.1c0,6.9,0,13.7,0,20.6c0,0.9-0.2,1.3-1.2,1.2c-1.1-0.1-2.5,0.5-3.1-0.3c-0.5-0.6-0.2-2-0.2-3
			c0-13.1,0-26.1,0-39.2c0-1,0.2-1.4,1.2-1.2c1,0.1,2.4-0.4,3,0.2c0.6,0.6,0.2,2,0.2,3C716.8,99.7,716.8,105.9,716.8,112.1z"/>
		<path class="st16" d="M70.3,7.9c4.9,0.9,9.6,2.5,13.9,5c0,0.5-0.3,0.8-0.6,1.1c-2.2,2.3-4.3,4.7-6.5,7c-2.3,2.5-4.7,5-7,7.5
			c-0.4,0.4-0.7,0.8-1.2,0.9c-0.6-0.2-1.1-0.3-1.7-0.5c-0.3-0.4-0.2-0.8-0.2-1.3c0.9-6.1,1.7-12.3,2.6-18.4
			C69.7,8.9,69.7,8.2,70.3,7.9z"/>
		<path class="st17" d="M84.7,13.2c4.1,2.1,7.6,4.9,10.8,8.2c0.4,0.4,0.4,0.6,0,1c-5,4.8-10,9.7-14.9,14.6c-0.7,0.6-0.9,0.4-1.1-0.3
			c-0.1-2,0.6-3.8,1-5.7c1.1-5.4,2.3-10.8,3.5-16.1C84.1,14.3,84,13.5,84.7,13.2z"/>
		<path class="st18" d="M66.7,114.5c2.1,0.3,4,1.1,6,1.7c5.6,1.6,11.1,3.3,16.7,4.9c0.5,0.1,1,0.2,1.4,0.7
			c-2.8,3.9-6.1,7.1-10.1,9.8c-0.9-0.3-1.2-1.1-1.8-1.7c-4-4.7-7.9-9.3-11.9-14c-0.3-0.3-0.7-0.6-0.5-1.1
			C66.6,114.6,66.6,114.6,66.7,114.5z"/>
		<path class="st19" d="M36,116.2c0.2,0.1,0.5,0.2,0.7,0.3c0.6,1,0.2,2.2,0.4,3.2c-0.1,0.9-0.2,1.7,0.1,2.6c0.1,0.8,0.1,1.7,0.1,2.5
			c0,0.9-0.1,1.8,0.1,2.7c0.1,0.8,0.1,1.7,0.1,2.6c0,0.9-0.1,1.8,0.1,2.7c0.1,0.8,0.1,1.5,0.1,2.3c0,0.9-0.1,1.7,0.1,2.6
			c0.1,0.8,0.2,1.6,0.3,2.4c-4.8-0.7-9.4-2.2-13.7-4.4c-0.2-0.4,0.1-0.8,0.3-1.1c3.4-5.8,6.8-11.6,10.2-17.4
			C35.2,116.7,35.3,116.1,36,116.2z"/>
		<path class="st20" d="M55.2,22.8c0-0.5,0-1,0.2-1.5c-0.2-0.4-0.2-0.8,0-1.2c0-0.5,0-1,0-1.4c0.3-0.4,0-1,0.2-1.4
			c0-0.5,0-1,0.2-1.5c-0.2-0.4-0.2-0.8,0-1.2c0-0.5,0-1,0-1.4c0.3-0.4,0-1,0.2-1.4c0-0.4,0-0.8,0-1.2c0.3-0.4-0.1-1,0.2-1.4
			c0.1-1.9,0.1-1.9,1.9-2.4c0.7,0,1.5-0.1,2.2-0.1c3.1,0.1,6.3,0.4,9.4,1c0.2,0.6-0.2,1.1-0.5,1.5c-3.7,5.4-7.4,10.8-11.2,16.1
			c-0.7,1-1.2,2.2-2.2,2.9c-0.4,0.2-0.8,0.3-1.2,0.2c0-0.6-0.1-1.1,0.2-1.7c-0.2-0.4-0.2-0.8,0-1.2c0-0.5,0-1,0-1.4
			C55.3,23.8,54.9,23.3,55.2,22.8z"/>
		<path class="st21" d="M40.8,83.3c1.5-5.1,3.1-10.2,4.6-15.3c0.9-3.1,1.9-6.2,2.9-9.3c0.5,0.3,0.9,0.5,1.4,0.8
			c0.1,1.2-0.2,2.4,0.2,3.6c-0.2,0.7-0.2,1.4,0,2.1c0,0.7,0,1.4,0,2.2c0.3,0.7-0.1,1.5,0.2,2.2c0.1,0.8-0.2,1.6,0.2,2.4
			c-0.2,0.7-0.2,1.4,0,2.1c0,0.7,0,1.4,0,2.2c0.3,0.7-0.1,1.5,0.2,2.2c0.1,0.8-0.2,1.6,0.2,2.4c-0.2,0.7-0.2,1.4,0,2.1
			c0,1,0,1.9,0.2,2.9c-2.6,0-5.1-0.8-7.6-1.6C42.6,84.1,41.6,83.9,40.8,83.3z"/>
		<path class="st22" d="M66.5,114.7c2.5,3,5.1,6,7.6,9c2.2,2.6,4.4,5.2,6.5,7.8c-3.5,2.6-7.4,4.6-11.5,6c-0.9,0.2-0.8-0.5-0.9-0.9
			c-0.3-1.8-0.5-3.7-0.7-5.6c-0.5-4.8-1.1-9.5-1.6-14.3c-0.1-0.6-0.2-1.3,0.2-1.9C66.3,114.8,66.4,114.8,66.5,114.7z"/>
		<path class="st23" d="M36,116.2c-1.7,2.4-3,5-4.5,7.6c-2.4,4-4.7,8-7,11.9c-0.3-0.2-0.6-0.4-0.9-0.5c0-0.6,0-1.1,0-1.7
			c0.3-0.6-0.1-1.3,0.2-1.9c0-0.6,0-1.3,0-1.9c0.3-0.6-0.1-1.3,0.2-1.9c0-0.6,0-1.3,0-1.9c0.3-0.6-0.1-1.3,0.2-1.9
			c0-0.6,0-1.3,0-1.9c0.3-0.6-0.1-1.3,0.2-1.9c0-0.6,0-1.3,0-1.9c0.3-0.6-0.1-1.3,0.2-1.9c0-0.6,0-1.3,0-1.9
			c0.3-0.6-0.1-1.3,0.2-1.9c0-0.8,0-1.6,0-2.3C28.5,112.3,32.2,114.3,36,116.2z"/>
		<path class="st24" d="M67.2,93.4c0.2,0.3,0.4,0.2,0.6,0c7.1-4.8,14.2-9.6,21.3-14.4c0.1,0,0.1-0.1,0.1-0.2
			c2.3,2.6,4.2,5.6,5.5,8.9c-7.9,1.9-15.8,3.8-23.7,5.6c-1.3,0.3-2.5,0.7-3.8,0.8c-0.2-0.2-0.3-0.3-0.5-0.5
			C66.8,93.4,66.9,93.2,67.2,93.4z"/>
		<path class="st25" d="M84.7,13.2c-0.7,3.1-1.4,6.1-2.1,9.2c-1,4.6-2,9.3-3,14c0,0.1-0.1,0.3-0.2,0.4c-2.7-3.6-6.4-5.8-10.6-7.2
			c2.2-2.4,4.4-4.8,6.6-7.2c2.9-3.1,5.8-6.2,8.7-9.3C84.4,13,84.6,13.1,84.7,13.2z"/>
		<path class="st26" d="M42.9,32.9c-1.8-1.4-3.1-3.3-4.7-4.9c-1-1.1-1.9-2.1-2.9-3.2c-2.2-2.6-4.6-5.1-7-7.6
			c-0.1-0.1-0.2-0.1-0.3-0.1c3.3-2.7,7-4.8,11-6.3c0.5,0.3,0.5,0.9,0.6,1.4c1.1,6.3,2.2,12.6,3.3,18.8
			C43.1,31.6,43.5,32.3,42.9,32.9z"/>
		<path class="st27" d="M42.9,32.9c-0.5-3-1-5.9-1.5-8.9c-0.7-4.1-1.4-8.1-2.1-12.2c-0.1-0.4-0.2-0.7-0.2-1c0.4-0.2,0.8-0.4,1.2-0.6
			c1.1,1.9,2.5,3.7,3.8,5.5c3.1,4.4,6.3,8.8,9.4,13.2c-1.4,0.5-2.8,0.9-4.2,1.4c-2.2,0.8-4.1,2.1-6,3.5C43.1,33.4,43,33.1,42.9,32.9
			z"/>
		<path class="st28" d="M67.2,93.4c-0.1,0.1-0.3,0.2-0.4,0.2c-2.3-2.2-5-3.8-7.8-5.2c2.2-2.3,4.4-4.7,6.7-7c3.7-3.8,7.3-7.6,11-11.5
			c0.3-0.4,0.6-0.7,0.7-1.2c0.4,0.1,0.7,0.4,1,0.7c-1.3,2-2.1,4.2-3.1,6.3c-1.7,3.5-3.2,7-4.8,10.5C69.4,88.6,68.1,90.9,67.2,93.4z"
			/>
		<path class="st29" d="M55.9,134.6c0.4-0.8,0.2-1.6,0.2-2.4c0.3-0.7-0.1-1.5,0.2-2.2c0-0.8,0-1.6,0-2.4c0.3-0.7-0.1-1.5,0.2-2.2
			c-0.1-2.2,0.2-4.5,0.2-6.7c0.1,0,0.2,0,0.2,0c0.7,0.3,0.9,1.1,1.3,1.7c2.9,5.3,5.8,10.6,8.7,15.9c0.3,0.5,0.8,1.1,0.3,1.8
			c-3.4,1.2-6.9,2-10.5,2.4c-0.4,0.1-0.9,0.2-1.3,0c-0.1-1.3,0.4-2.5,0.2-3.8C56.1,136.1,56.1,135.4,55.9,134.6z"/>
		<path class="st30" d="M37,124.8c0-0.9,0-1.8,0-2.6c-0.2-0.8-0.2-1.6,0-2.4c-0.5-1.1-0.1-2.2-0.2-3.3c2.4,0.7,4.8,1.7,7.3,2.2
			c0.9,0.2,1.9,0.4,2.8,0.6c-2.7,6.7-5.3,13.3-8,20c-0.1,0.3-0.3,0.6-0.4,0.9c-0.1,0-0.2,0-0.3,0c-0.8-0.6-0.3-1.6-0.5-2.3
			c-0.3-0.9,0.1-1.8-0.2-2.6c0-0.8,0-1.6,0-2.4c-0.3-0.9,0.1-1.8-0.2-2.6c0-0.9,0-1.8,0-2.6C36.9,126.6,37.3,125.7,37,124.8z"/>
		<path class="st31" d="M55.9,28.3c1.8-3,3.9-5.8,5.9-8.7c2.5-3.7,5.1-7.4,7.7-11.2c0.2-0.2,0.2-0.5,0.3-0.8
			c0.2,0.1,0.3,0.1,0.5,0.2c-0.5,1.9-0.6,3.9-0.9,5.8c-0.5,3.1-0.9,6.2-1.4,9.4c-0.3,2-0.5,3.9-0.8,5.9C63.5,28.1,59.7,28,55.9,28.3
			z"/>
		<path class="st32" d="M67.4,138.2c-0.3-1.7-1.5-3.1-2.2-4.6c-1.6-3.1-3.3-6.1-5-9.1c-1-1.9-2.1-3.8-3.1-5.7
			c3.2-0.8,6.3-2.1,9.1-3.9c0.4,4.3,0.9,8.6,1.4,12.9c0.4,3,0.7,6,1,9c0,0.4,0,0.7,0.5,0.8C68.6,137.9,68,138,67.4,138.2z"/>
		<path class="st33" d="M46.8,57.9c-1.6,1.2-2.6,3.2-4.7,3.7c0,0,0.3,0.3,0.2,0.4c-2.4,2.3-4.8,4.5-7.2,6.8
			c-1.5,1.4-2.9,2.9-4.4,4.2c-1.1,0.9-2.1,2-3.1,3c-0.1,0-0.1-0.1-0.2-0.1c0.6-1.9,1.7-3.4,2.7-5c3.1-5.4,6.2-10.7,9.3-16
			c0.5-0.8,0.6-1.9,1.6-2.2C42.6,54.7,44.6,56.3,46.8,57.9z"/>
		<path class="st34" d="M12.8,46.1c0.9-0.8,2-0.5,3-0.6c4.2-0.6,8.3-1,12.5-1.5c2.9-0.4,5.7-0.8,8.6-1.2c0.4,0,0.7,0,1.1,0
			c-0.2,2.6,0.4,5.1,1.5,7.4c-3.1-0.4-6.1-0.9-9.2-1.3c-3.4-0.5-6.9-1-10.3-1.6C17.5,46.9,15.1,46.7,12.8,46.1z"/>
		<path class="st35" d="M97.2,106.3c-4.5,0.3-9,0.5-13.6,0.7c-2.9,0.1-5.8,0.4-8.7,0.5c-1.1,0-2.1,0.3-3.2,0.2
			c0.5-2.1,0.6-4.1,0.2-6.2c1.7,0.3,3.4,0.6,5.1,0.9c4.5,0.8,9.1,1.6,13.6,2.5c1.9,0.3,3.7,0.7,5.6,1.1c0.5,0.1,0.7,0,1-0.3
			C97.4,105.9,97.5,106.1,97.2,106.3z"/>
		<path class="st2" d="M714.6,71.5c2.3,0,4.1,1.7,4.1,3.9c0,2.1-1.9,3.8-4.1,3.8c-2.2,0-4.1-1.7-4-3.8
			C710.6,73.2,712.3,71.5,714.6,71.5z"/>
		<path class="st36" d="M399,89c0,7.2-1.2,14.1-4.8,20.4c-4.5,7.8-11.4,12.1-20.2,13.5c-5.7,0.9-11.4,0.6-16.9-1.3
			c-7.8-2.7-13.5-7.9-16.5-15.6c-4.5-11.6-4.6-23.4,0.5-34.8c4.1-9.2,11.5-14.4,21.4-15.9c6-0.9,11.9-0.6,17.6,1.5
			c8.7,3.2,14,9.6,16.8,18.3C398.5,79.5,399,84.3,399,89z"/>
		<path class="st36" d="M686.9,110.9c0,4.2-0.5,7.8-1.9,11.2c-2.5,5.8-6.9,8.8-13.1,9.2c-5.6,0.3-10.3-1.4-13.7-6.1
			c-0.4-0.5-0.5-1-0.5-1.6c0-7.1,0-14.2,0-21.2c0-0.4,0-0.9,0.3-1.3c2.9-3.9,6.4-7.1,11.4-8c5.7-1,10.8,0,14.4,5.1
			c1.9,2.6,2.6,5.7,2.9,8.9C686.8,108.4,686.8,110,686.9,110.9z"/>
		<path class="st36" d="M809.4,118.6c0,1.1-0.1,2.2,0,3.2c0.3,1.8-0.6,2.9-1.8,4.1c-4.1,3.7-8.8,5.7-14.4,5.6
			c-5.7-0.1-9.5-4.6-8.4-9.9c0.5-2.1,1.8-3.5,3.5-4.6c3-1.9,6.5-2.6,9.9-3.2c3.3-0.6,6.6-0.7,9.9-0.9c1-0.1,1.4,0.2,1.3,1.2
			C809.3,115.6,809.4,117.1,809.4,118.6z"/>
		<path class="st36" d="M626.5,118.6c0,1.5,0,3,0,4.6c0,0.7-0.2,1.2-0.7,1.7c-3.7,3.6-7.9,6.2-13.2,6.6c-1.7,0.1-3.4,0.1-5.1-0.4
			c-3.3-1-5.2-3.2-5.7-6.6c-0.5-3.2,0.9-5.7,3.6-7.4c3-1.9,6.5-2.7,9.9-3.3c3.3-0.6,6.7-0.7,10-1c1-0.1,1.3,0.3,1.2,1.3
			C626.5,115.6,626.5,117.1,626.5,118.6z"/>
		<path class="st37" d="M56.6,125.5c-0.1,0.7,0.2,1.5-0.2,2.2C56.5,127,56.2,126.2,56.6,125.5z"/>
		<path class="st37" d="M56.4,130.1c-0.1,0.7,0.2,1.5-0.2,2.2C56.3,131.5,55.9,130.8,56.4,130.1z"/>
		<path class="st38" d="M55.9,134.6c0.4,0.7,0.4,1.4,0,2.1C55.9,136.1,55.9,135.4,55.9,134.6z"/>
		<path class="st39" d="M50.6,78.5c-0.5-0.7-0.1-1.4-0.2-2.2C50.9,77,50.6,77.8,50.6,78.5z"/>
		<path class="st40" d="M50.2,69.6c-0.5-0.7-0.1-1.4-0.2-2.2C50.4,68.1,50.1,68.9,50.2,69.6z"/>
		<path class="st41" d="M50.9,83c-0.4-0.7-0.4-1.4,0-2.1C50.9,81.6,50.9,82.3,50.9,83z"/>
		<path class="st41" d="M49.9,65.3c-0.4-0.7-0.4-1.4,0-2.1C49.9,63.8,49.9,64.6,49.9,65.3z"/>
		<path class="st41" d="M50.4,74.1c-0.4-0.7-0.4-1.4,0-2.1C50.4,72.7,50.4,73.4,50.4,74.1z"/>
		<path class="st42" d="M53.2,61.4c-0.5,0-0.9,0-1.4,0c0,0,0-0.1,0-0.1c0.4,0,0.9,0,1.3,0C53.2,61.3,53.2,61.4,53.2,61.4z"/>
		<path class="st43" d="M55.9,86.5c-0.4,0.1-0.8,0.2-1.2,0C55.1,86.3,55.5,86.4,55.9,86.5z"/>
		<path class="st44" d="M45.8,61.4c-0.5,0-0.9,0-1.4,0c0,0,0-0.1,0-0.1c0.4,0,0.9,0,1.3,0C45.8,61.3,45.8,61.4,45.8,61.4z"/>
		<path class="st45" d="M25,112.3c-0.1,0.6,0.2,1.3-0.2,1.9C24.8,113.6,24.5,112.9,25,112.3z"/>
		<path class="st45" d="M24.7,116.2c-0.1,0.6,0.2,1.3-0.2,1.9C24.6,117.4,24.2,116.8,24.7,116.2z"/>
		<path class="st45" d="M24.5,120c-0.1,0.6,0.2,1.3-0.2,1.9C24.3,121.3,24,120.6,24.5,120z"/>
		<path class="st45" d="M24,127.7c-0.1,0.6,0.2,1.3-0.2,1.9C23.9,129,23.5,128.3,24,127.7z"/>
		<path class="st45" d="M23.8,131.5c-0.1,0.6,0.2,1.3-0.2,1.9C23.6,132.8,23.3,132.1,23.8,131.5z"/>
		<path class="st45" d="M24.2,123.8c-0.1,0.6,0.2,1.3-0.2,1.9C24.1,125.1,23.8,124.4,24.2,123.8z"/>
		<path class="st46" d="M56.1,11.8c-0.1,0.5,0.2,1-0.2,1.4C56,12.7,55.7,12.2,56.1,11.8z"/>
		<path class="st47" d="M56.4,9.1c-0.1,0.5,0.2,1-0.2,1.4C56.2,10.1,56,9.6,56.4,9.1z"/>
		<path class="st48" d="M55.2,22.8c-0.1,0.5,0.2,1-0.2,1.4C55,23.8,54.8,23.2,55.2,22.8z"/>
		<path class="st49" d="M55.7,17.3c-0.1,0.5,0.2,1-0.2,1.4C55.5,18.2,55.2,17.7,55.7,17.3z"/>
		<path class="st50" d="M55,25.7c0,0.4,0,0.8,0,1.2C54.6,26.5,54.6,26.1,55,25.7z"/>
		<path class="st50" d="M55.4,20.2c0,0.4,0,0.8,0,1.2C55.1,21,55.1,20.6,55.4,20.2z"/>
		<path class="st50" d="M55.9,14.6c0,0.4,0,0.8,0,1.2C55.6,15.4,55.6,15,55.9,14.6z"/>
		<path class="st51" d="M37.4,135.1c0.5,0.8,0.1,1.8,0.2,2.6C37.2,136.9,37.6,136,37.4,135.1z"/>
		<path class="st51" d="M37,124.8c0.5,0.8,0.1,1.8,0.2,2.6C36.7,126.6,37.1,125.7,37,124.8z"/>
		<path class="st52" d="M37.2,130.1c0.5,0.8,0.1,1.8,0.2,2.6C36.9,131.9,37.3,131,37.2,130.1z"/>
		<path class="st51" d="M37,119.8c0,0.8,0,1.6,0,2.4C36.6,121.4,36.6,120.6,37,119.8z"/>
		<path class="st53" d="M63.8,86.6c-0.4,0-0.9,0-1.3,0c0,0,0-0.1,0-0.1c0.5,0,0.9,0,1.4,0C63.8,86.5,63.8,86.6,63.8,86.6z"/>
	</g>
</g>
</svg>
